<svg xmlns="http://www.w3.org/2000/svg" viewBox="0 0 800 600">
  <title>Half iPhone focus lane</title>
  <g transform="translate(140, 60)">
    <path d="M 56 0 L 464 0 Q 520 0 520 56 L 520 540 L 0 540 L 0 56 Q 0 0 56 0 Z" fill="#1B1B1B"/>
    <path d="M 64 14 L 456 14 Q 506 14 506 64 L 506 540 L 14 540 L 14 64 Q 14 14 64 14 Z" fill="#1B1813"/>
    <rect x="215" y="42" width="90" height="28" rx="14" fill="#0A0A0A"/>
    <g transform="translate(60, 110)">
      <text font-family="Inter Tight, sans-serif" font-size="13" fill="#FFFFFF" opacity="0.5" font-weight="500">Esc</text>
      <text x="320" y="0" text-anchor="end" font-family="Inter Tight, sans-serif" font-size="11" fill="#FFFFFF" opacity="0.4" letter-spacing="0.18em" font-weight="600">FOCUS LANE</text>
    </g>
    <g transform="translate(260, 200)">
      <text text-anchor="middle" font-family="Inter Tight, sans-serif" font-size="10" fill="#FFFFFF" opacity="0.4" letter-spacing="0.22em" font-weight="600">FOCUSING ON</text>
      <text y="48" text-anchor="middle" font-family="Fraunces, serif" font-size="32" font-weight="400" fill="#FFFFFF">Draft Q3 plan</text>
    </g>
    <g transform="translate(260, 360)">
      <circle r="80" fill="none" stroke="#FFFFFF" stroke-width="1" opacity="0.1"/>
      <circle r="80" fill="none" stroke="#7CA481" stroke-width="2" stroke-dasharray="502" stroke-dashoffset="180" transform="rotate(-90)" stroke-linecap="round"/>
      <text text-anchor="middle" y="-2" font-family="Fraunces, serif" font-size="36" font-weight="500" fill="#FFFFFF">17:32</text>
      <text text-anchor="middle" y="20" font-family="Inter Tight, sans-serif" font-size="9" fill="#FFFFFF" opacity="0.5" letter-spacing="0.18em" font-weight="600">REMAINING</text>
    </g>
    <g transform="translate(180, 490)">
      <rect width="70" height="36" rx="18" fill="none" stroke="#FFFFFF" stroke-width="1" opacity="0.3"/>
      <text x="35" y="22" text-anchor="middle" font-family="Inter Tight, sans-serif" font-size="13" fill="#FFFFFF" opacity="0.7">Pause</text>
    </g>
    <g transform="translate(270, 490)">
      <rect width="70" height="36" rx="18" fill="#7CA481"/>
      <text x="35" y="22" text-anchor="middle" font-family="Inter Tight, sans-serif" font-size="13" font-weight="500" fill="#FFFFFF">Done</text>
    </g>
  </g>
</svg>
