<svg xmlns="http://www.w3.org/2000/svg" viewBox="0 0 800 600">
  <title>Half iPhone calendar integration</title>
  <g transform="translate(140, 60)">
    <path d="M 56 0 L 464 0 Q 520 0 520 56 L 520 540 L 0 540 L 0 56 Q 0 0 56 0 Z" fill="#1B1B1B"/>
    <path d="M 64 14 L 456 14 Q 506 14 506 64 L 506 540 L 14 540 L 14 64 Q 14 14 64 14 Z" fill="#FFFFFF"/>
    <rect x="215" y="42" width="90" height="28" rx="14" fill="#1B1B1B"/>
    <g transform="translate(60, 110)">
      <text font-family="Inter Tight, sans-serif" font-size="14" fill="#7CA481" font-weight="500">← Week</text>
      <g transform="translate(280, -6)">
        <rect width="120" height="22" rx="11" fill="#F5F8F4"/>
        <circle cx="12" cy="11" r="4" fill="#7CA481"/>
        <text x="22" y="14" font-family="Inter Tight, sans-serif" font-size="10" fill="#5A8061" font-weight="500">Google synced</text>
      </g>
    </g>
    <g transform="translate(60, 170)">
      <text font-family="Fraunces, serif" font-size="32" font-weight="500" fill="#7CA481">Wednesday</text>
      <text x="300" y="0" font-family="Inter Tight, sans-serif" font-size="11" fill="#7CA481" letter-spacing="0.18em" font-weight="600">MAY 13</text>
      <line x1="0" y1="14" x2="400" y2="14" stroke="#7CA481" stroke-width="1"/>
    </g>
    <g transform="translate(60, 232)">
      <circle cx="6" cy="6" r="4" fill="#5C7A99"/>
      <text x="22" y="11" font-family="Inter Tight, sans-serif" font-size="15" font-weight="500" fill="#1B1813">Team standup</text>
      <text x="22" y="30" font-family="Inter Tight, sans-serif" font-size="12" fill="#9A917F">9:00 am · from Google</text>
    </g>
    <g transform="translate(60, 286)">
      <circle cx="6" cy="6" r="4" fill="#5C7A99"/>
      <text x="22" y="11" font-family="Inter Tight, sans-serif" font-size="15" font-weight="500" fill="#1B1813">Design review</text>
      <text x="22" y="30" font-family="Inter Tight, sans-serif" font-size="12" fill="#9A917F">11:00 am · from Google</text>
    </g>
    <g transform="translate(60, 340)">
      <circle cx="6" cy="6" r="4" fill="#7CA481"/>
      <text x="22" y="11" font-family="Inter Tight, sans-serif" font-size="15" font-weight="500" fill="#1B1813">Picking up Eva</text>
      <text x="22" y="30" font-family="Inter Tight, sans-serif" font-size="12" fill="#9A917F">3:30 pm · from Google</text>
    </g>
    <line x1="60" y1="394" x2="450" y2="394" stroke="#F2F2F2" stroke-width="0.5" stroke-dasharray="4 4"/>
    <text x="60" y="420" font-family="Inter Tight, sans-serif" font-size="11" fill="#9A917F" letter-spacing="0.18em" font-weight="600">YOUR TASKS</text>
    <g transform="translate(60, 450)">
      <rect width="16" height="16" rx="3" fill="none" stroke="#9A917F" stroke-width="1.2"/>
      <text x="24" y="14" font-family="Inter Tight, sans-serif" font-size="15" fill="#1B1813">Draft Q3 plan</text>
    </g>
    <g transform="translate(60, 484)">
      <rect width="16" height="16" rx="3" fill="none" stroke="#9A917F" stroke-width="1.2"/>
      <text x="24" y="14" font-family="Inter Tight, sans-serif" font-size="15" fill="#1B1813">Reply to Jamie</text>
    </g>
  </g>
</svg>
